<svg xmlns="http://www.w3.org/2000/svg" xmlns:xlink="http://www.w3.org/1999/xlink" id="Layer_1" x="0" y="0" version="1.1" viewBox="0 0 29.4 29.7" xml:space="preserve" style="enable-background:new 0 0 29.4 29.7"><style type="text/css">.st0{fill:#ffcc34}.st1{fill:#333}.st2{fill:#fefefe}.st3{fill:#fff}</style><title>Page 1</title><desc>Created with Sketch.</desc><g><path id="Fill-1" d="M29.4,14.8c0,8.2-6.7,14.9-14.9,14.9S-0.3,23-0.3,14.8C-0.3,6.7,6.3,0,14.5,0S29.4,6.7,29.4,14.8" class="st0"/><path id="Fill-4" d="M26.5,14.8c0,6.6-5.3,11.9-11.9,11.9S2.7,21.4,2.7,14.8S8,2.9,14.6,2.9 C21.1,2.9,26.5,8.2,26.5,14.8" class="st1"/><path id="Fill-6" d="M6.8,18.9c-1-1-1.9-1.9-2.7-2.6l2.2-2.2l1.2,1L7.6,15c-0.2-0.8-0.3-2.3,1.1-3.7 c1.1-1.1,2.5-1.4,3.7-0.8l0,0c-0.1-0.8-0.1-1.5,0.1-2.1c0.2-0.7,0.6-1.4,1.2-2c1.6-1.6,3.9-1.7,6.4,0.8l4.9,4.9l-2.5,2.5L18,10.1 c-1.2-1.2-2.3-1.5-3.1-0.7c-0.6,0.6-0.6,1.4-0.3,2.1c0.1,0.2,0.4,0.5,0.6,0.7l4.9,4.9l-2.5,2.5L13,15c-1-1-2.1-1.4-3-0.5 c-0.7,0.7-0.5,1.6-0.3,2.1c0.1,0.3,0.3,0.5,0.6,0.8l4.8,4.8l-2.5,2.5L6.8,18.9z" class="st2"/></g><g><path id="Fill-8" d="M34.8,13.2c0-1.3,0-2.5-0.1-3.4h2.8l0.1,1.5h0.1c0.5-0.7,1.4-1.7,3.2-1.7c1.4,0,2.5,0.7,2.9,1.8 l0,0c0.4-0.6,0.9-1,1.4-1.3c0.6-0.3,1.3-0.5,2-0.5c2.1,0,3.6,1.4,3.6,4.7v6.3h-3.2v-5.9c0-1.6-0.5-2.5-1.6-2.5 c-0.8,0-1.3,0.5-1.6,1.2c-0.1,0.2-0.1,0.6-0.1,0.8v6.3h-3.2v-6c0-1.3-0.5-2.3-1.6-2.3c-0.9,0-1.4,0.7-1.6,1.2 c-0.1,0.3-0.1,0.6-0.1,0.9v6.2h-3.2v-7.3H34.8z" class="st3"/><path id="Fill-10" d="M60.2,13.9c0-0.8-0.4-2.2-1.9-2.2c-1.4,0-2,1.3-2.1,2.2H60.2z M56.3,16.2c0.1,1.4,1.5,2.1,3,2.1 c1.1,0,2.1-0.2,3-0.5l0.4,2.3c-1.1,0.5-2.4,0.7-3.9,0.7c-3.6,0-5.7-2.1-5.7-5.5c0-2.7,1.7-5.7,5.4-5.7c3.5,0,4.8,2.7,4.8,5.4 c0,0.6-0.1,1.1-0.1,1.3L56.3,16.2z" class="st3"/><path id="Fill-12" d="M69,6.9v2.9h2.4v2.5H69v3.9c0,1.3,0.3,1.9,1.3,1.9c0.5,0,0.7,0,1-0.1v2.5 c-0.4,0.2-1.2,0.3-2.2,0.3c-1.1,0-2-0.4-2.5-0.9c-0.6-0.7-0.9-1.7-0.9-3.2v-4.4h-1.4V9.8h1.4v-2L69,6.9z" class="st3"/><path id="Fill-14" d="M79,15.5c-1.8,0-3.1,0.4-3.1,1.7c0,0.9,0.6,1.3,1.3,1.3c0.8,0,1.5-0.5,1.7-1.2 c0-0.2,0.1-0.4,0.1-0.6V15.5z M82.3,18c0,1,0,2,0.2,2.6h-3l-0.2-1.1h-0.1c-0.7,0.9-1.8,1.3-3.1,1.3c-2.2,0-3.5-1.6-3.5-3.3 c0-2.8,2.5-4.1,6.3-4.1v-0.1c0-0.6-0.3-1.4-2-1.4c-1.1,0-2.3,0.4-3,0.8l-0.6-2.1c0.7-0.4,2.2-1,4.2-1c3.6,0,4.7,2.1,4.7,4.6 L82.3,18L82.3,18z" class="st3"/><path id="Fill-16" d="M93,20.3c-0.6,0.3-1.7,0.5-3,0.5c-3.5,0-5.7-2.1-5.7-5.5c0-3.1,2.2-5.7,6.1-5.7 c0.9,0,1.8,0.2,2.5,0.4l-0.5,2.5c-0.4-0.2-1-0.3-1.9-0.3c-1.8,0-2.9,1.3-2.9,3c0,2,1.3,3,2.9,3c0.8,0,1.4-0.1,1.9-0.4L93,20.3z" class="st3"/><path id="Fill-18" d="M94.8,13.3c0-1.6,0-2.6-0.1-3.5h2.9l0.1,2h0.1c0.5-1.6,1.8-2.2,2.9-2.2c0.3,0,0.5,0,0.7,0.1v3.1 c-0.3,0-0.5-0.1-0.9-0.1c-1.2,0-2.1,0.6-2.3,1.7c0,0.2-0.1,0.5-0.1,0.7v5.4h-3.3C94.8,20.5,94.8,13.3,94.8,13.3z" class="st3"/><path id="Fill-20" d="M103.1,20.5h3.3V9.8h-3.3V20.5z M104.8,8.4c-1.1,0-1.8-0.8-1.8-1.8s0.7-1.8,1.9-1.8 c1.1,0,1.8,0.8,1.9,1.8C106.7,7.6,105.9,8.4,104.8,8.4L104.8,8.4z" class="st3"/><path id="Fill-22" d="M112.9,6.9v2.9h2.4v2.5h-2.4v3.9c0,1.3,0.3,1.9,1.3,1.9c0.5,0,0.7,0,1-0.1v2.5 c-0.4,0.2-1.2,0.3-2.2,0.3c-1.1,0-2-0.4-2.5-0.9c-0.6-0.6-0.9-1.7-0.9-3.2v-4.4h-1.4V9.8h1.4v-2L112.9,6.9z" class="st3"/><path id="Fill-23" d="M117.2,20.5h3.3V9.8h-3.3V20.5z M118.8,8.4c-1.1,0-1.8-0.8-1.8-1.8s0.7-1.8,1.9-1.8 c1.1,0,1.8,0.8,1.9,1.8C120.7,7.6,120,8.4,118.8,8.4L118.8,8.4z" class="st3"/><path id="Fill-24" d="M131.2,20.3c-0.6,0.3-1.7,0.5-3,0.5c-3.5,0-5.7-2.1-5.7-5.5c0-3.1,2.2-5.7,6.1-5.7 c0.9,0,1.8,0.2,2.5,0.4l-0.5,2.5c-0.4-0.2-1-0.3-1.9-0.3c-1.8,0-2.9,1.3-2.9,3c0,2,1.3,3,2.9,3c0.8,0,1.4-0.1,1.9-0.4L131.2,20.3z" class="st3"/></g></svg>